name Walk8.mot
datacolumns 19
datarows 25
range 4.35500000 4.37900000
endheader

                time	   L_ground_force_vx	   L_ground_force_vy	   L_ground_force_vz	   L_ground_force_px	   L_ground_force_py	   L_ground_force_pz	   R_ground_force_vx	   R_ground_force_vy	   R_ground_force_vz	   R_ground_force_px	   R_ground_force_py	   R_ground_force_pz	   L_ground_torque_x	   L_ground_torque_y	   L_ground_torque_z	   R_ground_torque_x	   R_ground_torque_y	   R_ground_torque_z	
          4.35500000	          0.00000000	          0.00000000	          0.00000000	          0.00000000	          0.00000000	          0.00000000	         -6.20433488	        868.65659863	        -63.99484246	          0.10550575	          0.00000000	          0.14778226	          0.00000000	          0.00000000	          0.00000000	          0.00000000	         13.47580894	          0.00000000	
          4.35600000	          0.00000000	          0.00000000	          0.00000000	          0.00000000	          0.00000000	          0.00000000	         -6.00651992	        869.03807748	        -63.66790450	          0.10561599	          0.00000000	          0.14783150	          0.00000000	          0.00000000	          0.00000000	          0.00000000	         13.43038001	          0.00000000	
          4.35700000	          0.00000000	          0.00000000	          0.00000000	          0.00000000	          0.00000000	          0.00000000	         -5.82713190	        869.45262154	        -63.34956165	          0.10571299	          0.00000000	          0.14790513	          0.00000000	          0.00000000	          0.00000000	          0.00000000	         13.38708448	          0.00000000	
          4.35800000	          0.00000000	          0.00000000	          0.00000000	          0.00000000	          0.00000000	          0.00000000	         -5.64637384	        869.84993913	        -63.03513265	          0.10578370	          0.00000000	          0.14797482	          0.00000000	          0.00000000	          0.00000000	          0.00000000	         13.34458845	          0.00000000	
          4.35900000	          0.00000000	          0.00000000	          0.00000000	          0.00000000	          0.00000000	          0.00000000	         -5.44610602	        870.19620807	        -62.71848163	          0.10583898	          0.00000000	          0.14800410	          0.00000000	          0.00000000	          0.00000000	          0.00000000	         13.30283795	          0.00000000	
          4.36000000	          0.00000000	          0.00000000	          0.00000000	          0.00000000	          0.00000000	          0.00000000	         -5.21864420	        870.49413361	        -62.39682380	          0.10591623	          0.00000000	          0.14797442	          0.00000000	          0.00000000	          0.00000000	          0.00000000	         13.26397856	          0.00000000	
          4.36100000	          0.00000000	          0.00000000	          0.00000000	          0.00000000	          0.00000000	          0.00000000	         -4.97304909	        870.78438620	        -62.07562730	          0.10605972	          0.00000000	          0.14790404	          0.00000000	          0.00000000	          0.00000000	          0.00000000	         13.22847708	          0.00000000	
          4.36200000	          0.00000000	          0.00000000	          0.00000000	          0.00000000	          0.00000000	          0.00000000	         -4.72645341	        871.12607210	        -61.76590067	          0.10629058	          0.00000000	          0.14783831	          0.00000000	          0.00000000	          0.00000000	          0.00000000	         13.19145179	          0.00000000	
          4.36300000	          0.00000000	          0.00000000	          0.00000000	          0.00000000	          0.00000000	          0.00000000	         -4.49147639	        871.56647443	        -61.47771082	          0.10658368	          0.00000000	          0.14781332	          0.00000000	          0.00000000	          0.00000000	          0.00000000	         13.14635295	          0.00000000	
          4.36400000	          0.00000000	          0.00000000	          0.00000000	          0.00000000	          0.00000000	          0.00000000	         -4.27426793	        872.10973863	        -61.21678888	          0.10687118	          0.00000000	          0.14782435	          0.00000000	          0.00000000	          0.00000000	          0.00000000	         13.09259587	          0.00000000	
          4.36500000	          0.00000000	          0.00000000	          0.00000000	          0.00000000	          0.00000000	          0.00000000	         -4.07290222	        872.69635325	        -60.98274774	          0.10707092	          0.00000000	          0.14783169	          0.00000000	          0.00000000	          0.00000000	          0.00000000	         13.03735391	          0.00000000	
          4.36600000	          0.00000000	          0.00000000	          0.00000000	          0.00000000	          0.00000000	          0.00000000	         -3.87654918	        873.22936328	        -60.76897165	          0.10713028	          0.00000000	          0.14779810	          0.00000000	          0.00000000	          0.00000000	          0.00000000	         12.98852378	          0.00000000	
          4.36700000	          0.00000000	          0.00000000	          0.00000000	          0.00000000	          0.00000000	          0.00000000	         -3.67132085	        873.65637047	        -60.56562680	          0.10706820	          0.00000000	          0.14772041	          0.00000000	          0.00000000	          0.00000000	          0.00000000	         12.94737483	          0.00000000	
          4.36800000	          0.00000000	          0.00000000	          0.00000000	          0.00000000	          0.00000000	          0.00000000	         -3.44184709	        874.02655485	        -60.36486611	          0.10697738	          0.00000000	          0.14762977	          0.00000000	          0.00000000	          0.00000000	          0.00000000	         12.91124327	          0.00000000	
          4.36900000	          0.00000000	          0.00000000	          0.00000000	          0.00000000	          0.00000000	          0.00000000	         -3.17454716	        874.45721387	        -60.16767589	          0.10696830	          0.00000000	          0.14756586	          0.00000000	          0.00000000	          0.00000000	          0.00000000	         12.88121899	          0.00000000	
          4.37000000	          0.00000000	          0.00000000	          0.00000000	          0.00000000	          0.00000000	          0.00000000	         -2.87416054	        875.05726037	        -59.98446019	          0.10710219	          0.00000000	          0.14754894	          0.00000000	          0.00000000	          0.00000000	          0.00000000	         12.85990302	          0.00000000	
          4.37100000	          0.00000000	          0.00000000	          0.00000000	          0.00000000	          0.00000000	          0.00000000	         -2.57025088	        875.87652747	        -59.82365253	          0.10736800	          0.00000000	          0.14756971	          0.00000000	          0.00000000	          0.00000000	          0.00000000	         12.84329491	          0.00000000	
          4.37200000	          0.00000000	          0.00000000	          0.00000000	          0.00000000	          0.00000000	          0.00000000	         -2.29581972	        876.88530858	        -59.68397871	          0.10769718	          0.00000000	          0.14760141	          0.00000000	          0.00000000	          0.00000000	          0.00000000	         12.82303944	          0.00000000	
          4.37300000	          0.00000000	          0.00000000	          0.00000000	          0.00000000	          0.00000000	          0.00000000	         -2.06166797	        877.98760618	        -59.56053472	          0.10800391	          0.00000000	          0.14762297	          0.00000000	          0.00000000	          0.00000000	          0.00000000	         12.79559875	          0.00000000	
          4.37400000	          0.00000000	          0.00000000	          0.00000000	          0.00000000	          0.00000000	          0.00000000	         -1.85173975	        879.08523912	        -59.45019978	          0.10824252	          0.00000000	          0.14763186	          0.00000000	          0.00000000	          0.00000000	          0.00000000	         12.76391064	          0.00000000	
          4.37500000	          0.00000000	          0.00000000	          0.00000000	          0.00000000	          0.00000000	          0.00000000	         -1.63886833	        880.13349472	        -59.35083021	          0.10842796	          0.00000000	          0.14763700	          0.00000000	          0.00000000	          0.00000000	          0.00000000	         12.73166094	          0.00000000	
          4.37600000	          0.00000000	          0.00000000	          0.00000000	          0.00000000	          0.00000000	          0.00000000	         -1.40454244	        881.13101130	        -59.26034041	          0.10860114	          0.00000000	          0.14764561	          0.00000000	          0.00000000	          0.00000000	          0.00000000	         12.70065817	          0.00000000	
          4.37700000	          0.00000000	          0.00000000	          0.00000000	          0.00000000	          0.00000000	          0.00000000	         -1.14700225	        882.09363052	        -59.17430189	          0.10879261	          0.00000000	          0.14766191	          0.00000000	          0.00000000	          0.00000000	          0.00000000	         12.67320407	          0.00000000	
          4.37800000	          0.00000000	          0.00000000	          0.00000000	          0.00000000	          0.00000000	          0.00000000	         -0.87747337	        883.04613941	        -59.08492512	          0.10901228	          0.00000000	          0.14769000	          0.00000000	          0.00000000	          0.00000000	          0.00000000	         12.65213320	          0.00000000	
          4.37900000	          0.00000000	          0.00000000	          0.00000000	          0.00000000	          0.00000000	          0.00000000	         -0.61112312	        884.00543502	        -58.98412340	          0.10925063	          0.00000000	          0.14772531	          0.00000000	          0.00000000	          0.00000000	          0.00000000	         12.63639788	          0.00000000	
